<svg width="65" height="65" viewBox="0 0 65 65" fill="none" xmlns="http://www.w3.org/2000/svg">
<path d="M21.1697 32.03C19.9352 32.03 18.751 31.5392 17.8784 30.6667C17.0054 29.7937 16.5152 28.61 16.5152 27.3754C16.5152 26.1409 17.0054 24.9567 17.8784 24.0841C18.7509 23.2111 19.9352 22.7208 21.1697 22.7208C22.4043 22.7208 23.5879 23.2111 24.461 24.0841C25.3335 24.9566 25.8243 26.1408 25.8243 27.3754C25.8243 28.6099 25.3335 29.7935 24.461 30.6667C23.588 31.5392 22.4043 32.03 21.1697 32.03ZM63.0597 30.4785C63.0597 31.713 62.5695 32.8966 61.6964 33.7698C60.824 34.6422 59.6397 35.133 58.4051 35.133H56.8536V44.4421V44.4415C56.8519 46.0872 56.1977 47.6647 55.0341 48.8281C53.8706 49.9916 52.2932 50.6459 50.6475 50.6476H31.1209L19.1638 62.6053C18.8727 62.8963 18.4778 63.0597 18.0667 63.0597C17.8629 63.0603 17.6608 63.0204 17.4725 62.9419C16.8928 62.7011 16.5152 62.1358 16.5152 61.5082V50.6476H13.4122C11.7665 50.6459 10.189 49.9917 9.02556 48.8282C7.86265 47.6647 7.20785 46.0872 7.20608 44.4416V35.1331H5.65458C3.99164 35.1331 2.45508 34.2456 1.6236 32.8055C0.792132 31.3655 0.792132 29.5911 1.6236 28.1511C2.45508 26.711 3.99164 25.8242 5.65458 25.8242H7.20608V16.5151C7.20781 14.8694 7.86259 13.2919 9.02556 12.1285C10.189 10.9656 11.7665 10.3108 13.4122 10.309H28.9271V4.10305C28.9271 2.99442 29.5184 1.97005 30.4786 1.41574C31.4382 0.861422 32.6213 0.861422 33.5816 1.41574C34.5412 1.97005 35.1331 2.99442 35.1331 4.10305V10.309H50.648H50.6474C52.293 10.3107 53.8705 10.9655 55.034 12.1285C56.1975 13.292 56.8517 14.8694 56.8535 16.5151V25.8242H58.405C59.6395 25.8242 60.8237 26.3144 61.6963 27.1874C62.5693 28.0599 63.0596 29.2442 63.0596 30.4787L63.0597 30.4785ZM53.7506 16.515C53.75 15.6921 53.4226 14.9035 52.8412 14.3214C52.2592 13.7399 51.4704 13.4125 50.6476 13.4119H13.4124C12.5896 13.4125 11.8009 13.7399 11.2188 14.3214C10.6373 14.9034 10.3099 15.6921 10.3094 16.515V44.442V44.4414C10.3099 45.2642 10.6373 46.0529 11.2188 46.635C11.8008 47.2165 12.5896 47.5439 13.4124 47.5444H18.0669C18.4786 47.5444 18.8729 47.7079 19.164 47.9989C19.455 48.2899 19.6184 48.6848 19.6184 49.0959V57.7623L29.3819 47.9988V47.9994C29.6729 47.7084 30.0672 47.5444 30.4789 47.5444H50.6486C51.4714 47.5439 52.2601 47.2165 52.8422 46.635C53.4237 46.053 53.7511 45.2643 53.7516 44.4414L53.7506 16.515ZM42.8906 22.7209C41.6561 22.7209 40.4719 23.2111 39.5993 24.0842C38.7263 24.9566 38.236 26.1409 38.236 27.3755C38.236 28.61 38.7263 29.7936 39.5993 30.6668C40.4718 31.5392 41.656 32.03 42.8906 32.03C44.1246 32.03 45.3088 31.5392 46.1813 30.6668C47.0544 29.7937 47.5446 28.61 47.5446 27.3755C47.5446 26.141 47.0544 24.9567 46.1813 24.0842C45.3089 23.2111 44.1246 22.7209 42.8906 22.7209ZM40.8114 36.6491C35.1471 38.7585 28.9127 38.7585 23.2478 36.6491C22.4446 36.3679 21.5652 36.786 21.2759 37.5862C20.9866 38.3865 21.396 39.27 22.1934 39.5673C28.538 41.929 35.5206 41.929 41.8664 39.5673C42.6632 39.2699 43.0726 38.3865 42.7833 37.5862C42.4946 36.7859 41.6146 36.3679 40.8114 36.6491Z" fill="#72A4BF"/>
<path d="M40.812 36.6497L40.8114 36.6491M40.8114 36.6491C35.1471 38.7585 28.9127 38.7585 23.2478 36.6491C22.4446 36.3679 21.5652 36.786 21.2759 37.5862C20.9866 38.3865 21.396 39.27 22.1934 39.5673C28.538 41.929 35.5206 41.929 41.8664 39.5673C42.6632 39.2699 43.0726 38.3865 42.7833 37.5862C42.4946 36.7859 41.6146 36.3679 40.8114 36.6491ZM21.1697 32.03C19.9352 32.03 18.751 31.5392 17.8784 30.6667C17.0054 29.7937 16.5152 28.61 16.5152 27.3754C16.5152 26.1409 17.0054 24.9567 17.8784 24.0841C18.7509 23.2111 19.9352 22.7208 21.1697 22.7208C22.4043 22.7208 23.5879 23.2111 24.461 24.0841C25.3335 24.9566 25.8243 26.1408 25.8243 27.3754C25.8243 28.6099 25.3335 29.7935 24.461 30.6667C23.588 31.5392 22.4043 32.03 21.1697 32.03ZM63.0597 30.4785C63.0597 31.713 62.5695 32.8966 61.6964 33.7698C60.824 34.6422 59.6397 35.133 58.4051 35.133H56.8536V44.4421V44.4415C56.8519 46.0872 56.1977 47.6647 55.0341 48.8281C53.8706 49.9916 52.2932 50.6459 50.6475 50.6476H31.1209L19.1638 62.6053C18.8727 62.8963 18.4778 63.0597 18.0667 63.0597C17.8629 63.0603 17.6608 63.0204 17.4725 62.9419C16.8928 62.7011 16.5152 62.1358 16.5152 61.5082V50.6476H13.4122C11.7665 50.6459 10.189 49.9917 9.02556 48.8282C7.86265 47.6647 7.20785 46.0872 7.20608 44.4416V35.1331H5.65458C3.99164 35.1331 2.45508 34.2456 1.6236 32.8055C0.792132 31.3655 0.792132 29.5911 1.6236 28.1511C2.45508 26.711 3.99164 25.8242 5.65458 25.8242H7.20608V16.5151C7.20781 14.8694 7.86259 13.2919 9.02556 12.1285C10.189 10.9656 11.7665 10.3108 13.4122 10.309H28.9271V4.10305C28.9271 2.99442 29.5184 1.97005 30.4786 1.41574C31.4382 0.861422 32.6213 0.861422 33.5816 1.41574C34.5412 1.97005 35.1331 2.99442 35.1331 4.10305V10.309H50.648H50.6474C52.293 10.3107 53.8705 10.9655 55.034 12.1285C56.1975 13.292 56.8517 14.8694 56.8535 16.5151V25.8242H58.405C59.6395 25.8242 60.8237 26.3144 61.6963 27.1874C62.5693 28.0599 63.0596 29.2442 63.0596 30.4787L63.0597 30.4785ZM53.7506 16.515C53.75 15.6921 53.4226 14.9035 52.8412 14.3213C52.2592 13.7399 51.4704 13.4125 50.6476 13.4119H13.4124C12.5896 13.4125 11.8009 13.7399 11.2188 14.3213C10.6373 14.9034 10.3099 15.6921 10.3094 16.515V44.442V44.4414C10.3099 45.2642 10.6373 46.0529 11.2188 46.635C11.8008 47.2165 12.5896 47.5439 13.4124 47.5444H18.0669C18.4786 47.5444 18.8729 47.7079 19.164 47.9989C19.455 48.2899 19.6184 48.6848 19.6184 49.0959V57.7623L29.3819 47.9988V47.9994C29.6729 47.7084 30.0672 47.5444 30.4789 47.5444H50.6486C51.4714 47.5439 52.2601 47.2165 52.8422 46.635C53.4237 46.053 53.7511 45.2643 53.7516 44.4414L53.7506 16.515ZM42.8906 22.7209C41.6561 22.7209 40.4719 23.2111 39.5993 24.0842C38.7263 24.9566 38.236 26.1409 38.236 27.3755C38.236 28.61 38.7263 29.7936 39.5993 30.6668C40.4718 31.5392 41.656 32.03 42.8906 32.03C44.1246 32.03 45.3088 31.5392 46.1813 30.6668C47.0544 29.7937 47.5446 28.61 47.5446 27.3755C47.5446 26.141 47.0544 24.9567 46.1813 24.0842C45.3089 23.2111 44.1246 22.7209 42.8906 22.7209Z" stroke="#72A4BF" stroke-width="2" stroke-linecap="round"/>
</svg>
