<svg width="51" height="51" viewBox="0 0 51 51" fill="none" xmlns="http://www.w3.org/2000/svg">
<path d="M10.625 27.1141C10.625 24.229 10.625 22.7864 11.2082 21.5182C11.7915 20.2502 12.8868 19.3113 15.0774 17.4336L17.2024 15.6122C21.162 12.2183 23.1417 10.5214 25.5 10.5214C27.8583 10.5214 29.838 12.2183 33.7975 15.6122L35.9225 17.4336C38.1131 19.3113 39.2086 20.2502 39.7917 21.5182C40.375 22.7864 40.375 24.229 40.375 27.1141V36.125C40.375 40.1319 40.375 42.1353 39.1302 43.3802C37.8853 44.625 35.8819 44.625 31.875 44.625H19.125C15.1181 44.625 13.1146 44.625 11.8698 43.3802C10.625 42.1353 10.625 40.1319 10.625 36.125V27.1141Z" stroke="#DFE8E5" stroke-width="5"/>
<path d="M30.8125 44.625V34C30.8125 32.8264 29.8611 31.875 28.6875 31.875H22.3125C21.1389 31.875 20.1875 32.8264 20.1875 34V44.625" stroke="#DFE8E5" stroke-width="5" stroke-linecap="round" stroke-linejoin="round"/>
</svg>
