<svg width="38" height="38" viewBox="0 0 38 38" fill="none" xmlns="http://www.w3.org/2000/svg">
<path d="M15.8333 23.75V19" stroke="#D55555" stroke-width="5" stroke-linecap="round"/>
<path d="M22.1667 23.75V19" stroke="#D55555" stroke-width="5" stroke-linecap="round"/>
<path d="M4.75 11.0834H33.25C31.7745 11.0834 31.0368 11.0834 30.4548 11.3244C29.679 11.6458 29.0624 12.2623 28.741 13.0382C28.5 13.6202 28.5 14.3579 28.5 15.8334V25.3334C28.5 28.3189 28.5 29.8117 27.5725 30.7392C26.645 31.6667 25.1522 31.6667 22.1667 31.6667H15.8333C12.8478 31.6667 11.355 31.6667 10.4275 30.7392C9.5 29.8117 9.5 28.3189 9.5 25.3334V15.8334C9.5 14.3579 9.5 13.6202 9.25895 13.0382C8.93755 12.2623 8.32108 11.6458 7.54517 11.3244C6.96321 11.0834 6.22548 11.0834 4.75 11.0834Z" stroke="#D55555" stroke-width="5" stroke-linecap="round"/>
<path d="M15.9412 5.33677C16.1217 5.16843 16.5192 5.01969 17.0723 4.91359C17.6254 4.80751 18.3029 4.75 19 4.75C19.6971 4.75 20.3747 4.80751 20.9277 4.91359C21.4808 5.01969 21.8783 5.16843 22.0588 5.33677" stroke="#D55555" stroke-width="5" stroke-linecap="round"/>
</svg>
