<svg width="29" height="29" viewBox="0 0 29 29" fill="none" xmlns="http://www.w3.org/2000/svg">
<path d="M18.3515 6.5538C18.8642 6.60869 19.2727 6.84402 19.5976 7.09188C19.941 7.35396 20.3093 7.72577 20.6879 8.10433L20.8956 8.31202C21.2742 8.69058 21.646 9.05885 21.9081 9.40235C22.1913 9.77375 22.4579 10.2545 22.4579 10.875C22.4579 11.4956 22.1913 11.9763 21.9081 12.3477C21.646 12.6911 21.2742 13.0594 20.8956 13.438L12.2024 22.1311C12.0126 22.3209 11.7669 22.5821 11.4484 22.7625C11.1297 22.9429 10.779 23.0195 10.5185 23.0846L7.36672 23.8717L7.36436 23.8728L7.31125 23.8859C7.1326 23.9304 6.86511 24.0009 6.63038 24.0238C6.38063 24.0484 5.83462 24.0565 5.38901 23.6108C4.94341 23.1653 4.95157 22.6193 4.97601 22.3695C4.999 22.1347 5.06941 21.8673 5.11407 21.6886L5.9153 18.4813C5.98042 18.2209 6.05703 17.8702 6.23745 17.5515C6.41781 17.233 6.67896 16.9872 6.86875 16.7975L15.5619 8.10433C15.9405 7.72577 16.3088 7.35396 16.6522 7.09188C17.0236 6.80855 17.5043 6.54199 18.1249 6.54199L18.3515 6.5538Z" stroke="#4082A6" stroke-width="3"/>
<path d="M15.1042 9.06254L18.7292 6.64587L22.3542 10.2709L19.9376 13.8959L15.1042 9.06254Z" fill="#4082A6"/>
</svg>
