<svg width="43" height="43" viewBox="0 0 43 43" fill="none" xmlns="http://www.w3.org/2000/svg">
<path d="M27.7708 8.95837C30.2872 8.95837 31.5453 8.95837 32.449 9.56227C32.8403 9.82371 33.1763 10.1597 33.4377 10.5509C34.0416 11.4547 34.0416 12.7129 34.0416 15.2292V32.25C34.0416 35.6284 34.0416 37.3176 32.9921 38.3672C31.9425 39.4167 30.2533 39.4167 26.875 39.4167H16.125C12.7466 39.4167 11.0574 39.4167 10.0079 38.3672C8.95831 37.3176 8.95831 35.6284 8.95831 32.25V15.2292C8.95831 12.7129 8.95831 11.4547 9.56221 10.5509C9.82365 10.1597 10.1596 9.82371 10.5509 9.56227C11.4547 8.95837 12.7128 8.95837 15.2291 8.95837" stroke="#DFE8E5" stroke-width="5"/>
<path d="M16.125 8.95833C16.125 6.97931 17.7293 5.375 19.7083 5.375H23.2917C25.2707 5.375 26.875 6.97931 26.875 8.95833C26.875 10.9374 25.2707 12.5417 23.2917 12.5417H19.7083C17.7293 12.5417 16.125 10.9374 16.125 8.95833Z" stroke="#DFE8E5" stroke-width="5"/>
<path d="M16.125 21.5H26.875" stroke="#DFE8E5" stroke-width="5" stroke-linecap="round"/>
<path d="M16.125 28.6666H23.2917" stroke="#DFE8E5" stroke-width="5" stroke-linecap="round"/>
</svg>
