<svg width="48" height="48" viewBox="0 0 48 48" fill="none" xmlns="http://www.w3.org/2000/svg">
<path d="M31 10C33.809 10 35.2134 10 36.2222 10.6741C36.659 10.966 37.034 11.341 37.3258 11.7777C38 12.7866 38 14.1911 38 17V36C38 39.7712 38 41.6568 36.8284 42.8284C35.6568 44 33.7712 44 30 44H18C14.2288 44 12.3431 44 11.1716 42.8284C10 41.6568 10 39.7712 10 36V17C10 14.1911 10 12.7866 10.6741 11.7777C10.966 11.341 11.341 10.966 11.7777 10.6741C12.7866 10 14.1911 10 17 10" stroke="#1D4053" stroke-width="5"/>
<path d="M18 10C18 7.79086 19.7909 6 22 6H26C28.2092 6 30 7.79086 30 10C30 12.2091 28.2092 14 26 14H22C19.7909 14 18 12.2091 18 10Z" stroke="#1D4053" stroke-width="5"/>
<path d="M18 24H30" stroke="#1D4053" stroke-width="5" stroke-linecap="round"/>
<path d="M18 32H26" stroke="#1D4053" stroke-width="5" stroke-linecap="round"/>
</svg>
