<svg width="60" height="59" viewBox="0 0 60 59" fill="none" xmlns="http://www.w3.org/2000/svg">
<path d="M49.9075 14.6626H40.5037C40.0589 12.1084 38.7183 9.79197 36.7188 8.1223C34.7192 6.45262 32.1891 5.53699 29.5748 5.53699C26.9606 5.53699 24.4305 6.45262 22.4309 8.1223C20.4314 9.79197 19.0907 12.1084 18.646 14.6626H9.24214C8.26168 14.6626 7.32137 15.0488 6.62808 15.7363C5.93477 16.4237 5.54529 17.3561 5.54529 18.3282V47.6532C5.54529 48.6255 5.93477 49.5578 6.62808 50.2453C7.32137 50.9326 8.26168 51.3188 9.24214 51.3188H49.9075C50.888 51.3188 51.8282 50.9326 52.5216 50.2453C53.2149 49.5578 53.6044 48.6255 53.6044 47.6532V18.3282C53.6044 17.3561 53.2149 16.4237 52.5216 15.7363C51.8282 15.0488 50.888 14.6626 49.9075 14.6626ZM29.5748 9.1642C31.2137 9.16731 32.8052 9.70849 34.1011 10.7032C35.3968 11.698 36.324 13.0903 36.7375 14.6626H22.4122C22.8257 13.0903 23.7529 11.698 25.0486 10.7032C26.3445 9.70849 27.936 9.16731 29.5748 9.1642Z" fill="#77CFFF"/>
</svg>
