<svg width="72" height="72" viewBox="0 0 72 72" fill="none" xmlns="http://www.w3.org/2000/svg">
<path d="M36 46.125C42.8346 46.125 48.375 40.5846 48.375 33.75C48.375 26.9154 42.8346 21.375 36 21.375C29.1654 21.375 23.625 26.9154 23.625 33.75C23.625 40.5846 29.1654 46.125 36 46.125Z" fill="#77CFFF"/>
<path d="M36 6.75C30.2148 6.75 24.5596 8.46549 19.7496 11.6795C14.9394 14.8935 11.1904 19.4618 8.97653 24.8065C6.76267 30.1514 6.18343 36.0324 7.31205 41.7065C8.44067 47.3803 11.2264 52.5922 15.3171 56.6829C19.4078 60.7736 24.6197 63.5594 30.2936 64.688C35.9676 65.8166 41.8489 65.2374 47.1935 63.0234C52.5382 60.8096 57.1066 57.0607 60.3205 52.2504C63.5346 47.4404 65.25 41.7852 65.25 36C65.2351 28.247 62.1486 20.8158 56.6665 15.3335C51.1844 9.85133 43.7531 6.76487 36 6.75ZM54.5063 52.425C52.6849 49.8123 50.3379 47.6091 47.6156 45.9563C44.4899 48.9508 40.3285 50.6225 36 50.6225C31.6714 50.6225 27.5101 48.9508 24.3844 45.9563C21.6621 47.6091 19.3151 49.8123 17.4938 52.425C14.3263 48.8581 12.257 44.4519 11.5351 39.7366C10.8132 35.0213 11.4693 30.1977 13.4245 25.8464C15.3797 21.4953 18.5507 17.8018 22.5558 15.2106C26.561 12.6194 31.2298 11.2408 36 11.2408C40.7702 11.2408 45.439 12.6194 49.4442 15.2106C53.4492 17.8018 56.6203 21.4953 58.5756 25.8464C60.5308 30.1977 61.187 35.0213 60.4649 39.7366C59.7429 44.4519 57.6738 48.8581 54.5063 52.425Z" fill="#77CFFF"/>
</svg>
