<svg width="48" height="48" viewBox="0 0 48 48" fill="none" xmlns="http://www.w3.org/2000/svg">
<path d="M10 34H18C21.3138 34 24 36.6862 24 40V20C24 14.3431 24 11.5147 22.2426 9.75736C20.4852 8 17.6569 8 12 8H10C8.11438 8 7.17158 8 6.58578 8.58578C6 9.17158 6 10.1144 6 12V30C6 31.8856 6 32.8284 6.58578 33.4142C7.17158 34 8.11438 34 10 34Z" stroke="#DFE8E5" stroke-width="5"/>
<path d="M38 34H30C26.6862 34 24 36.6862 24 40V20C24 14.3431 24 11.5147 25.7574 9.75736C27.5148 8 30.3432 8 36 8H38C39.8856 8 40.8284 8 41.4142 8.58578C42 9.17158 42 10.1144 42 12V30C42 31.8856 42 32.8284 41.4142 33.4142C40.8284 34 39.8856 34 38 34Z" stroke="#DFE8E5" stroke-width="5"/>
</svg>
