<svg width="47" height="47" viewBox="0 0 47 47" fill="none" xmlns="http://www.w3.org/2000/svg">
<path d="M17.9176 15.3362C16.7958 11.5968 19.5959 7.83325 23.5 7.83325C27.4042 7.83325 30.2044 11.5968 29.0825 15.3362L26.021 25.5409C25.8835 25.9991 25.8148 26.2283 25.709 26.4169C25.4368 26.9017 24.9713 27.248 24.4289 27.3694C24.2176 27.4166 23.9785 27.4166 23.5 27.4166C23.0216 27.4166 22.7825 27.4166 22.5712 27.3694C22.0287 27.248 21.5632 26.9017 21.291 26.4169C21.1853 26.2283 21.1165 25.9991 20.9791 25.5409L17.9176 15.3362Z" stroke="#1D4053" stroke-width="5"/>
<path d="M23.4999 41.1251C25.663 41.1251 27.4166 39.3715 27.4166 37.2084C27.4166 35.0453 25.663 33.2917 23.4999 33.2917C21.3368 33.2917 19.5833 35.0453 19.5833 37.2084C19.5833 39.3715 21.3368 41.1251 23.4999 41.1251Z" stroke="#1D4053" stroke-width="5"/>
</svg>
