<svg width="47" height="47" viewBox="0 0 47 47" fill="none" xmlns="http://www.w3.org/2000/svg">
<path d="M17.9176 15.3363C16.7958 11.5969 19.5959 7.83337 23.5 7.83337C27.4042 7.83337 30.2044 11.5969 29.0825 15.3363L26.021 25.541C25.8835 25.9993 25.8148 26.2284 25.709 26.417C25.4368 26.9019 24.9713 27.2481 24.4289 27.3695C24.2176 27.4167 23.9785 27.4167 23.5 27.4167C23.0216 27.4167 22.7825 27.4167 22.5712 27.3695C22.0287 27.2481 21.5632 26.9019 21.291 26.417C21.1853 26.2284 21.1165 25.9993 20.9791 25.541L17.9176 15.3363Z" stroke="#DFE8E5" stroke-width="5"/>
<path d="M23.5 41.125C25.6631 41.125 27.4166 39.3714 27.4166 37.2083C27.4166 35.0452 25.6631 33.2916 23.5 33.2916C21.3369 33.2916 19.5833 35.0452 19.5833 37.2083C19.5833 39.3714 21.3369 41.125 23.5 41.125Z" stroke="#DFE8E5" stroke-width="5"/>
</svg>
